<?xml version="1.0" encoding="iso-8859-1"?>
<!-- Generator: Adobe Illustrator 19.0.0, SVG Export Plug-In . SVG Version: 6.00 Build 0)  -->
<svg xmlns="http://www.w3.org/2000/svg" xmlns:xlink="http://www.w3.org/1999/xlink" version="1.1" id="Layer_1" x="0px" y="0px" viewBox="0 0 512 512" style="enable-background:new 0 0 512 512;" xml:space="preserve" width="512px" height="512px">
<g>
	<g>
		<path d="M501.801,129.022h-211.45c3.248-5.689,5.116-12.265,5.116-19.271c0-17.895-12.12-33.003-28.579-37.573    c0.932-10.669,5.078-30.676,22.722-38.979c5.097-2.399,7.284-8.475,4.885-13.571c-2.399-5.097-8.474-7.285-13.571-4.886    c-28.038,13.195-33.543,42.825-34.511,57.333c-16.644,4.447-28.941,19.65-28.941,37.676c0,7.007,1.867,13.582,5.116,19.271H10.199    C4.566,129.021,0,133.587,0,139.22v73.434c0,5.633,4.566,10.199,10.199,10.199v265.179c0,5.633,4.566,10.199,10.199,10.199    h471.203c5.632,0,10.199-4.566,10.199-10.199V242.232c5.632,0,10.199-4.566,10.199-10.199V139.22    C512,133.588,507.433,129.022,501.801,129.022z M256.47,91.152c10.255,0,18.598,8.343,18.598,18.598    c0,10.255-8.344,18.598-18.598,18.598c-10.255,0-18.598-8.343-18.598-18.598C237.872,99.495,246.215,91.152,256.47,91.152z     M481.402,477.835H30.598v-24.478h450.805V477.835z M481.402,432.958H30.598v-26.309h450.805V432.958z M61.477,300.37H30.598    v-76.785c12.256,2.856,21.418,13.864,21.418,26.978v21.249C52.016,282.504,55.537,292.388,61.477,300.37z M280.478,320.767v26.309    H30.598v-26.309H280.478z M138.428,300.369c5.94-7.982,9.461-17.866,9.461-28.558v-40.287c0-15.466,12.582-28.048,28.048-28.048    s28.048,12.582,28.048,28.048c0,26.151,21.276,47.426,47.426,47.426h1.02c13.182,0,24.262,9.143,27.249,21.418H138.428z     M282.408,367.475c1.933,6.941,5.254,13.306,9.651,18.776H30.598v-18.776H282.408z M481.402,386.251H373.95    c4.397-5.471,7.718-11.835,9.651-18.776h97.802V386.251z M481.402,347.077H385.53v-26.309h95.872V347.077z M481.402,300.369    H385.53v-84.314c0-6.936,5.642-12.579,12.579-12.579h30.938c6.936,0,12.579,5.643,12.579,12.579    c0,14.434,11.744,26.178,26.178,26.178h13.599V300.369z M491.602,221.835h-23.798c-3.187,0-5.78-2.593-5.78-5.78    c0-18.184-14.794-32.977-32.977-32.977h-30.938c-18.183,0-32.977,14.794-32.977,32.977v137.35    c0,17.715-14.412,32.128-32.128,32.128c-17.715,0-32.127-14.412-32.127-32.128V236.114c0-5.633-4.567-10.199-10.199-10.199    s-10.199,4.566-10.199,10.199v31.422c-7.922-5.647-17.6-8.982-28.048-8.982h-1.02c-14.903,0-27.028-12.125-27.028-27.028    c0-26.713-21.734-48.446-48.446-48.446c-26.713,0-48.446,21.733-48.446,48.446v40.287c0,15.185-12.353,27.538-27.538,27.538    s-27.538-12.353-27.538-27.538v-21.249c0-26.526-21.581-48.107-48.107-48.107h-3.909V149.42h471.203V221.835z" fill="#FFFFFF"/>
	</g>
</g>
<g>
	<g>
		<path d="M290.677,187.159c-5.632,0-10.199,4.566-10.199,10.199v4.08c0,5.633,4.567,10.199,10.199,10.199    s10.199-4.566,10.199-10.199v-4.08C300.877,191.725,296.309,187.159,290.677,187.159z" fill="#FFFFFF"/>
	</g>
</g>
<g>
</g>
<g>
</g>
<g>
</g>
<g>
</g>
<g>
</g>
<g>
</g>
<g>
</g>
<g>
</g>
<g>
</g>
<g>
</g>
<g>
</g>
<g>
</g>
<g>
</g>
<g>
</g>
<g>
</g>
</svg>
